<svg xmlns="http://www.w3.org/2000/svg" width="1040" height="582" viewBox="0 0 1040 582" font-family="WenQuanYi Zen Hei, Noto Sans CJK TC, PingFang TC, Microsoft JhengHei, sans-serif">
  <rect width="1040" height="582" fill="#fcfcfb"/>
  <text x="44" y="52" font-size="29" font-weight="700" fill="#0b0b0b">四種走法，誰會受益、誰會受傷</text>
  <text x="44" y="84" font-size="16" fill="#52514e">股價只有兩塊：<tspan font-weight="700" fill="#0b0b0b">公司賺多少</tspan>，乘上<tspan font-weight="700" fill="#0b0b0b">市場願意付幾倍</tspan>。所以只要問兩件事——</text>
  <text x="44" y="110" font-size="16" fill="#52514e"><tspan font-weight="700" fill="#0b0b0b">企業獲利撐不撐得住</tspan>（管第一塊）、<tspan font-weight="700" fill="#0b0b0b">通膨回不回得到目標</tspan>（管第二塊）。</text>
  <text x="44" y="150" font-size="14" font-weight="700" fill="#898781">情境</text>
  <text x="332" y="150" font-size="14" font-weight="700" fill="#898781" text-anchor="middle">機率</text>
  <text x="446" y="150" font-size="14" font-weight="700" fill="#898781" text-anchor="middle">現金與短債</text>
  <text x="566" y="150" font-size="14" font-weight="700" fill="#898781" text-anchor="middle">長天期公債</text>
  <text x="686" y="150" font-size="14" font-weight="700" fill="#898781" text-anchor="middle">高估值成長股</text>
  <text x="806" y="150" font-size="14" font-weight="700" fill="#898781" text-anchor="middle">黃金</text>
  <text x="926" y="150" font-size="14" font-weight="700" fill="#898781" text-anchor="middle">能源</text>
  <line x1="44" y1="162" x2="996" y2="162" stroke="#e1e0d9" stroke-width="1.5"/>
  <text x="44" y="188" font-size="20" font-weight="700" fill="#0b0b0b">黏著</text>
  <text x="44" y="212" font-size="14" fill="#52514e">通膨沒回去，獲利撐住</text>
  <text x="332" y="201" font-size="28" font-weight="700" fill="#0b0b0b" text-anchor="middle">50%</text>
  <rect x="390" y="168" width="112" height="46" rx="5" fill="#dbe9fa"/>
  <text x="446" y="197" font-size="16" font-weight="700" fill="#1a5fb0" text-anchor="middle">有利</text>
  <rect x="510" y="168" width="112" height="46" rx="5" fill="#fadedd"/>
  <text x="566" y="197" font-size="16" font-weight="700" fill="#b02a2a" text-anchor="middle">不利</text>
  <rect x="630" y="168" width="112" height="46" rx="5" fill="#dbe9fa"/>
  <text x="686" y="197" font-size="16" font-weight="700" fill="#1a5fb0" text-anchor="middle">有利</text>
  <rect x="750" y="168" width="112" height="46" rx="5" fill="#f0efec"/>
  <text x="806" y="197" font-size="16" font-weight="400" fill="#52514e" text-anchor="middle">普通</text>
  <rect x="870" y="168" width="112" height="46" rx="5" fill="#dbe9fa"/>
  <text x="926" y="197" font-size="16" font-weight="700" fill="#1a5fb0" text-anchor="middle">有利</text>
  <text x="44" y="272" font-size="20" font-weight="700" fill="#0b0b0b">軟著陸</text>
  <text x="44" y="296" font-size="14" fill="#52514e">通膨回到目標，獲利撐住</text>
  <text x="332" y="285" font-size="28" font-weight="700" fill="#0b0b0b" text-anchor="middle">19%</text>
  <rect x="390" y="252" width="112" height="46" rx="5" fill="#fadedd"/>
  <text x="446" y="281" font-size="16" font-weight="700" fill="#b02a2a" text-anchor="middle">不利</text>
  <rect x="510" y="252" width="112" height="46" rx="5" fill="#dbe9fa"/>
  <text x="566" y="281" font-size="16" font-weight="700" fill="#1a5fb0" text-anchor="middle">有利</text>
  <rect x="630" y="252" width="112" height="46" rx="5" fill="#2a78d6"/>
  <text x="686" y="281" font-size="16" font-weight="700" fill="#ffffff" text-anchor="middle">最有利</text>
  <rect x="750" y="252" width="112" height="46" rx="5" fill="#f0efec"/>
  <text x="806" y="281" font-size="16" font-weight="400" fill="#52514e" text-anchor="middle">普通</text>
  <rect x="870" y="252" width="112" height="46" rx="5" fill="#fadedd"/>
  <text x="926" y="281" font-size="16" font-weight="700" fill="#b02a2a" text-anchor="middle">不利</text>
  <text x="44" y="356" font-size="20" font-weight="700" fill="#0b0b0b">停滯性通膨</text>
  <text x="44" y="380" font-size="14" fill="#52514e">通膨沒回去，獲利也轉壞</text>
  <text x="332" y="369" font-size="28" font-weight="700" fill="#0b0b0b" text-anchor="middle">17%</text>
  <rect x="390" y="336" width="112" height="46" rx="5" fill="#2a78d6"/>
  <text x="446" y="365" font-size="16" font-weight="700" fill="#ffffff" text-anchor="middle">最有利</text>
  <rect x="510" y="336" width="112" height="46" rx="5" fill="#fadedd"/>
  <text x="566" y="365" font-size="16" font-weight="700" fill="#b02a2a" text-anchor="middle">不利</text>
  <rect x="630" y="336" width="112" height="46" rx="5" fill="#c93030"/>
  <text x="686" y="365" font-size="16" font-weight="700" fill="#ffffff" text-anchor="middle">最不利</text>
  <rect x="750" y="336" width="112" height="46" rx="5" fill="#f0efec"/>
  <text x="806" y="365" font-size="16" font-weight="400" fill="#52514e" text-anchor="middle">普通</text>
  <rect x="870" y="336" width="112" height="46" rx="5" fill="#dbe9fa"/>
  <text x="926" y="365" font-size="16" font-weight="700" fill="#1a5fb0" text-anchor="middle">有利</text>
  <text x="44" y="440" font-size="20" font-weight="700" fill="#0b0b0b">成長驚嚇</text>
  <text x="44" y="464" font-size="14" fill="#52514e">通膨回到目標，獲利轉壞</text>
  <text x="332" y="453" font-size="28" font-weight="700" fill="#0b0b0b" text-anchor="middle">14%</text>
  <rect x="390" y="420" width="112" height="46" rx="5" fill="#dbe9fa"/>
  <text x="446" y="449" font-size="16" font-weight="700" fill="#1a5fb0" text-anchor="middle">有利</text>
  <rect x="510" y="420" width="112" height="46" rx="5" fill="#2a78d6"/>
  <text x="566" y="449" font-size="16" font-weight="700" fill="#ffffff" text-anchor="middle">最有利</text>
  <rect x="630" y="420" width="112" height="46" rx="5" fill="#f0efec"/>
  <text x="686" y="449" font-size="16" font-weight="400" fill="#52514e" text-anchor="middle">普通</text>
  <rect x="750" y="420" width="112" height="46" rx="5" fill="#dbe9fa"/>
  <text x="806" y="449" font-size="16" font-weight="700" fill="#1a5fb0" text-anchor="middle">有利</text>
  <rect x="870" y="420" width="112" height="46" rx="5" fill="#c93030"/>
  <text x="926" y="449" font-size="16" font-weight="700" fill="#ffffff" text-anchor="middle">最不利</text>
  <line x1="44" y1="508" x2="996" y2="508" stroke="#e1e0d9" stroke-width="1.5"/>
  <rect x="44" y="526" width="26" height="18" rx="4" fill="#2a78d6"/>
  <text x="78" y="540" font-size="14" fill="#52514e">最有利</text>
  <rect x="132" y="526" width="26" height="18" rx="4" fill="#dbe9fa"/>
  <text x="166" y="540" font-size="14" fill="#52514e">有利</text>
  <rect x="208" y="526" width="26" height="18" rx="4" fill="#f0efec"/>
  <text x="242" y="540" font-size="14" fill="#52514e">普通</text>
  <rect x="284" y="526" width="26" height="18" rx="4" fill="#fadedd"/>
  <text x="318" y="540" font-size="14" fill="#52514e">不利</text>
  <rect x="360" y="526" width="26" height="18" rx="4" fill="#c93030"/>
  <text x="394" y="540" font-size="14" fill="#52514e">最不利</text>
  <text x="996" y="540" font-size="14" fill="#898781" text-anchor="end">機率四捨五入到整數，誤差約 ±5 個百分點</text>
  </svg>
